{"title":"The Longest Ride {2015} HDRiP H264 AC3-MRG","uid":12064534,"size":1158682760,"categoryP":"video","categoryS":"movies","magnet":"?xt=urn:btih:20590d14e196134e17c12567bf51984e6afcc311&amp;dn=The+Longest+Ride+%7B2015%7D+HDRiP+H264+AC3-MRG&amp;tr=udp%3A%2F%2Ftracker.openbittorrent.com%3A80&amp;tr=udp%3A%2F%2Fopen.demonii.com%3A1337&amp;tr=udp%3A%2F%2Ftracker.coppersurfer.tk%3A6969&amp;tr=udp%3A%2F%2Fexodus.desync.com%3A6969","seeders":8,"leechers":1,"uploader":"SaM","files":11,"time":1435355236,"description":"The Longest Ride {2015} HDRiP H264 AC3-MRG\n\nFormat : AVI\nFormat/Info : Audio Video Interleave\nFile size : 1.08 GiB\nDuration : 2h 8mn\nOverall bit rate : 1 197 Kbps\n\nVideo\nID : 0\nFormat : AVC\nFormat/Info : Advanced Video Codec\nFormat profile : High@L3\nFormat settings, CABAC : Yes\nFormat settings, ReFrames : 6 frames\nCodec ID : H264\nDuration : 2h 8mn\nBit rate : 1 000 Kbps\nWidth : 720 pixels\nHeight : 304 pixels\nDisplay aspect ratio : 2.35:1\nFrame rate mode : Variable\nFrame rate : 30.000 fps\nColor space : YUV\nChroma subsampling : 4:2:0\nBit depth : 8 bits\nScan type : Progressive\nBits/(Pixel*Frame) : 0.152\nStream size : 915 MiB (83%)\nWriting library : x264 core \n\nAudio\nID : 1\nFormat : AC-3\nFormat/Info : Audio Coding 3\nMode extension : CM (complete main)\nFormat settings, Endianness : Big\nCodec ID : 2000\nDuration : 2h 8mn\nBit rate mode : Constant\nBit rate : 192 Kbps\nChannel(s) : 6 channels\nChannel positions : Front: L C R, Side: L R, LFE\nSampling rate : 48.0 KHz\nCompression mode : Lossy\nStream size : 176 MiB (16%)\nAlignment : Aligned on interleaves\nInterleave, duration : 32 ms (0.96 video frame)\n &lt;a href=&quot;\nhttp://extraimago.com/image/sMn&quot; rel=&quot;nofollow&quot; target=&quot;_NEW&quot;&gt;\nhttp://extraimago.com/image/sMn&lt;/a&gt; &lt;a href=&quot;\nhttp://extraimago.com/image/sMj&quot; rel=&quot;nofollow&quot; target=&quot;_NEW&quot;&gt;\nhttp://extraimago.com/image/sMj&lt;/a&gt; &lt;a href=&quot;\nhttp://extraimago.com/image/sMT&quot; rel=&quot;nofollow&quot; target=&quot;_NEW&quot;&gt;\nhttp://extraimago.com/image/sMT&lt;/a&gt; &lt;a href=&quot;\nhttp://extraimago.com/image/sMN&quot; rel=&quot;nofollow&quot; target=&quot;_NEW&quot;&gt;\nhttp://extraimago.com/image/sMN&lt;/a&gt; &lt;a href=&quot;\nhttp://extraimago.com/image/sM2&quot; rel=&quot;nofollow&quot; target=&quot;_NEW&quot;&gt;\nhttp://extraimago.com/image/sM2&lt;/a&gt; &lt;a href=&quot;\nhttp://extraimago.com/image/sMw&quot; rel=&quot;nofollow&quot; target=&quot;_NEW&quot;&gt;\nhttp://extraimago.com/image/sMw&lt;/a&gt; &lt;a href=&quot;\nhttp://extraimago.com/image/sMa&quot; rel=&quot;nofollow&quot; target=&quot;_NEW&quot;&gt;\nhttp://extraimago.com/image/sMa&lt;/a&gt;","torrent":{"xt":"urn:btih:20590d14e196134e17c12567bf51984e6afcc311","amp;dn":"The+Longest+Ride+%7B2015%7D+HDRiP+H264+AC3-MRG","amp;tr":["udp%3A%2F%2Ftracker.openbittorrent.com%3A80","udp%3A%2F%2Fopen.demonii.com%3A1337","udp%3A%2F%2Ftracker.coppersurfer.tk%3A6969","udp%3A%2F%2Fexodus.desync.com%3A6969"],"infoHash":"20590d14e196134e17c12567bf51984e6afcc311","infoHashBuffer":{"type":"Buffer","data":[32,89,13,20,225,150,19,78,23,193,37,103,191,81,152,78,106,252,195,17]},"announce":[],"urlList":[]}}